<svg width="160" height="50" viewBox="0 0 160 50" fill="none" xmlns="http://www.w3.org/2000/svg">
<path d="M54 44.46V36.76H56.651C57.2597 36.76 57.7583 36.8627 58.147 37.068C58.543 37.2733 58.8363 37.552 59.027 37.904C59.2177 38.2487 59.313 38.6337 59.313 39.059C59.313 39.5357 59.1847 39.9683 58.928 40.357C58.6787 40.7457 58.2863 41.0243 57.751 41.193L59.39 44.46H58.037L56.541 41.358H55.166V44.46H54ZM55.166 40.478H56.585C57.113 40.478 57.498 40.3497 57.74 40.093C57.9893 39.8363 58.114 39.5027 58.114 39.092C58.114 38.6813 57.993 38.355 57.751 38.113C57.509 37.8637 57.1167 37.739 56.574 37.739H55.166V40.478Z" fill="#E4C590"/>
<path d="M64.6524 44.46V36.76H69.5474V37.706H65.8184V40.104H69.2174V41.028H65.8184V43.514H69.5474V44.46H64.6524Z" fill="#E4C590"/>
<path d="M77.4376 44.592C76.8729 44.592 76.3779 44.493 75.9526 44.295C75.5272 44.097 75.1936 43.8147 74.9516 43.448C74.7169 43.0813 74.5959 42.645 74.5886 42.139H75.8206C75.8279 42.5497 75.9709 42.898 76.2496 43.184C76.5282 43.47 76.9206 43.613 77.4266 43.613C77.8739 43.613 78.2222 43.5067 78.4716 43.294C78.7282 43.074 78.8566 42.7953 78.8566 42.458C78.8566 42.1867 78.7942 41.9667 78.6696 41.798C78.5522 41.6293 78.3872 41.49 78.1746 41.38C77.9692 41.27 77.7309 41.171 77.4596 41.083C77.1882 40.995 76.9022 40.8997 76.6016 40.797C76.0076 40.599 75.5602 40.3423 75.2596 40.027C74.9662 39.7117 74.8196 39.2973 74.8196 38.784C74.8122 38.3513 74.9112 37.9737 75.1166 37.651C75.3292 37.3283 75.6226 37.079 75.9966 36.903C76.3779 36.7197 76.8216 36.628 77.3276 36.628C77.8262 36.628 78.2626 36.7197 78.6366 36.903C79.0179 37.0863 79.3149 37.343 79.5276 37.673C79.7402 37.9957 79.8502 38.3733 79.8576 38.806H78.6256C78.6256 38.608 78.5742 38.421 78.4716 38.245C78.3689 38.0617 78.2186 37.9113 78.0206 37.794C77.8226 37.6767 77.5806 37.618 77.2946 37.618C76.9279 37.6107 76.6236 37.7023 76.3816 37.893C76.1469 38.0837 76.0296 38.3477 76.0296 38.685C76.0296 38.9857 76.1176 39.2167 76.2936 39.378C76.4696 39.5393 76.7116 39.675 77.0196 39.785C77.3276 39.8877 77.6796 40.0087 78.0756 40.148C78.4569 40.2727 78.7979 40.423 79.0986 40.599C79.3992 40.775 79.6376 41.006 79.8136 41.292C79.9969 41.578 80.0886 41.941 80.0886 42.381C80.0886 42.7697 79.9896 43.1327 79.7916 43.47C79.5936 43.8 79.2966 44.0713 78.9006 44.284C78.5046 44.4893 78.0169 44.592 77.4376 44.592Z" fill="#E4C590"/>
<path d="M86.9877 44.46V37.706H84.7107V36.76H90.4197V37.706H88.1537V44.46H86.9877Z" fill="#E4C590"/>
<path d="M94.138 44.46L96.976 36.76H98.252L101.068 44.46H99.836L99.176 42.579H96.03L95.37 44.46H94.138ZM96.36 41.655H98.846L97.603 38.146L96.36 41.655Z" fill="#E4C590"/>
<path d="M108.651 44.592C108.101 44.592 107.602 44.4857 107.155 44.273C106.715 44.053 106.363 43.7193 106.099 43.272C105.842 42.8247 105.714 42.2563 105.714 41.567V36.76H106.88V41.578C106.88 42.2527 107.041 42.7477 107.364 43.063C107.686 43.3783 108.123 43.536 108.673 43.536C109.215 43.536 109.648 43.3783 109.971 43.063C110.293 42.7477 110.455 42.2527 110.455 41.578V36.76H111.621V41.567C111.621 42.2563 111.485 42.8247 111.214 43.272C110.95 43.7193 110.59 44.053 110.136 44.273C109.688 44.4857 109.193 44.592 108.651 44.592Z" fill="#E4C590"/>
<path d="M117.076 44.46V36.76H119.727C120.336 36.76 120.835 36.8627 121.223 37.068C121.619 37.2733 121.913 37.552 122.103 37.904C122.294 38.2487 122.389 38.6337 122.389 39.059C122.389 39.5357 122.261 39.9683 122.004 40.357C121.755 40.7457 121.363 41.0243 120.827 41.193L122.466 44.46H121.113L119.617 41.358H118.242V44.46H117.076ZM118.242 40.478H119.661C120.189 40.478 120.574 40.3497 120.816 40.093C121.066 39.8363 121.19 39.5027 121.19 39.092C121.19 38.6813 121.069 38.355 120.827 38.113C120.585 37.8637 120.193 37.739 119.65 37.739H118.242V40.478Z" fill="#E4C590"/>
<path d="M127.234 44.46L130.072 36.76H131.348L134.164 44.46H132.932L132.272 42.579H129.126L128.466 44.46H127.234ZM129.456 41.655H131.942L130.699 38.146L129.456 41.655Z" fill="#E4C590"/>
<path d="M139.198 44.46V36.76H140.364L144.225 42.557V36.76H145.391V44.46H144.225L140.364 38.663V44.46H139.198Z" fill="#E4C590"/>
<path d="M152.717 44.46V37.706H150.44V36.76H156.149V37.706H153.883V44.46H152.717Z" fill="#E4C590"/>
<path fill-rule="evenodd" clip-rule="evenodd" d="M32.5132 42.597C29.684 44.1297 26.4436 45 23 45C11.9543 45 3 36.0457 3 25C3 13.9543 11.9543 5 23 5C26.0521 5 28.9446 5.68368 31.5326 6.90625C31.3663 7.11885 31.209 7.34319 31.0619 7.57929C30.37 8.68974 29.8253 10.0318 29.47 11.4633C27.5111 10.5253 25.3169 10 23 10C14.7157 10 8 16.7157 8 25C8 33.2843 14.7157 40 23 40C27.2915 40 31.162 38.1978 33.8961 35.309C33.5961 36.4152 33.1892 37.6031 32.6373 38.9318C32.2262 39.809 32.1122 40.4488 32.1122 41.4602C32.1122 41.8663 32.2596 42.247 32.5132 42.597ZM29.0138 14.6134C28.8567 18.2765 30.0306 21.8663 33.1625 23.2555C34.135 24.128 34.7379 25.2124 34.7379 26.6199C34.7379 26.9224 34.7379 27.2186 34.7371 27.5099C33.5832 32.9324 28.7666 37 23 37C16.3726 37 11 31.6274 11 25C11 18.3726 16.3726 13 23 13C25.1914 13 27.2456 13.5874 29.0138 14.6134Z" fill="#E4C590"/>
<path d="M41.7607 22.8781C46.7982 20.5576 46.5779 13.151 43.8104 8.53905C40.9996 3.85445 36.7943 3.78631 33.9427 8.53905C31.1901 13.126 30.9363 20.5491 35.9923 22.8781C36.9183 23.7408 37.6263 25.4349 37.6263 26.8266C37.6263 31.0162 37.8838 34.3087 35.7001 39.1394C35.3086 40.0068 35.1257 40.6631 35.1257 41.2062C35.1257 43.2981 36.8081 45 38.8765 45C40.9449 45 42.6273 43.2981 42.6273 41.2062C42.6273 40.6631 42.4445 40.0068 42.053 39.1394C39.8389 34.2417 40.1268 30.7222 40.1268 26.8266C40.1268 25.4349 40.8348 23.7408 41.7607 22.8781Z" fill="#E4C590"/>
<path d="M75.9453 32.2109C75.5 32.2109 75.2773 31.9297 75.2773 31.3672C75.2773 31.0156 75.4062 30.793 75.6641 30.6992C75.9219 30.582 76.332 30.5 76.8945 30.4531C77.2695 30.4297 77.5625 30.3945 77.7734 30.3477C78.0078 30.3008 78.2305 30.2188 78.4414 30.1016C78.6758 29.9844 78.8398 29.8086 78.9336 29.5742C79.0508 29.3164 79.1094 29 79.1094 28.625V20.8203C79.1094 17.1875 79.0742 15.2656 79.0039 15.0547C78.9805 14.9141 78.8984 14.8438 78.7578 14.8438C78.5938 14.8438 78.4297 14.9844 78.2656 15.2656C77.3516 16.7422 76.1445 18.8398 74.6445 21.5586C73.168 24.2539 71.8789 26.6328 70.7773 28.6953C69.6758 30.7578 69.043 31.8945 68.8789 32.1055C68.6445 32.3867 68.375 32.5273 68.0703 32.5273C67.6484 32.5273 67.2266 32.0938 66.8047 31.2266C65.6328 28.8125 64.2852 26.2695 62.7617 23.5977C61.2617 20.9258 60.0312 18.8164 59.0703 17.2695C58.1094 15.7227 57.5703 14.9141 57.4531 14.8438C57.4297 14.8203 57.3945 14.8086 57.3477 14.8086C57.2539 14.8086 57.207 14.8672 57.207 14.9844C57.0664 17.5156 56.9961 20.0117 56.9961 22.4727C56.9961 24.5117 57.043 26.6562 57.1367 28.9062C57.1836 29.5859 57.2773 29.9844 57.418 30.1016C57.6523 30.2656 58.0391 30.3477 58.5781 30.3477C59.1406 30.3477 59.6094 30.418 59.9844 30.5586C60.3828 30.6758 60.582 30.957 60.582 31.4023C60.582 31.9414 60.3711 32.2109 59.9492 32.2109C59.9258 32.2109 59.832 32.1992 59.668 32.1758C59.5039 32.1758 59.2812 32.1641 59 32.1406C58.7422 32.1172 58.4492 32.0938 58.1211 32.0703C57.793 32.0469 57.3945 32.0234 56.9258 32C56.4805 32 56.0469 32 55.625 32C55.2031 32 54.7578 32 54.2891 32C53.8438 32.0234 53.457 32.0469 53.1289 32.0703C52.8008 32.0938 52.4961 32.1172 52.2148 32.1406C51.957 32.1641 51.7461 32.1758 51.582 32.1758C51.418 32.1992 51.3242 32.2109 51.3008 32.2109C50.8555 32.2109 50.6328 31.9531 50.6328 31.4375C50.6328 31.2734 50.6445 31.1445 50.668 31.0508C50.7148 30.9336 50.7734 30.8398 50.8438 30.7695C50.9375 30.6758 51.0195 30.6172 51.0898 30.5938C51.1836 30.5469 51.3242 30.5117 51.5117 30.4883C51.6992 30.4414 51.8516 30.4062 51.9688 30.3828C52.1094 30.3594 52.3203 30.3359 52.6016 30.3125C52.8828 30.2891 53.1172 30.2656 53.3047 30.2422C53.4922 30.2188 53.6562 30.1836 53.7969 30.1367C53.9375 30.0664 54.043 30.0078 54.1133 29.9609C54.1836 29.8906 54.2422 29.7852 54.2891 29.6445C54.3359 29.4805 54.3594 29.3633 54.3594 29.293C54.3828 29.1992 54.4062 29.0469 54.4297 28.8359C54.4531 28.6016 54.4648 28.4375 54.4648 28.3438C55.0742 20.9609 55.3789 15.5938 55.3789 12.2422C55.3789 11.9609 55.2383 11.6562 54.957 11.3281C54.9336 11.3047 54.7812 11.1289 54.5 10.8008C54.2188 10.4492 53.9844 10.1914 53.7969 10.0273C53.6094 9.83984 53.3047 9.65234 52.8828 9.46484C52.4609 9.25391 52.0039 9.14844 51.5117 9.14844C51.043 9.07812 50.8086 8.85547 50.8086 8.48047C50.8086 8.24609 50.8438 8.07031 50.9141 7.95312C51.0078 7.8125 51.0898 7.74219 51.1602 7.74219C51.2305 7.71875 51.3242 7.70703 51.4414 7.70703H56.6094C57.0312 7.70703 57.3359 7.85938 57.5234 8.16406L64.3438 19.5547L68.5273 26.2344C68.668 26.5156 68.8789 26.6562 69.1602 26.6562C69.3711 26.6562 69.5352 26.5273 69.6523 26.2695L79.4258 8.02344C79.543 7.8125 79.7539 7.70703 80.0586 7.70703H85.2969C85.4141 7.70703 85.4961 7.71875 85.543 7.74219C85.6133 7.74219 85.6719 7.8125 85.7188 7.95312C85.7891 8.07031 85.8242 8.24609 85.8242 8.48047C85.8242 8.66797 85.7891 8.82031 85.7188 8.9375C85.6719 9.05469 85.5547 9.14844 85.3672 9.21875C85.2031 9.28906 85.0273 9.34766 84.8398 9.39453C84.6523 9.41797 84.3828 9.47656 84.0312 9.57031C83.6797 9.64062 83.3398 9.72266 83.0117 9.81641C82.4258 9.95703 82.1328 10.3086 82.1328 10.8711C82.1797 14.8555 82.2148 18.2188 82.2383 20.9609C82.2852 23.7031 82.3086 25.5195 82.3086 26.4102C82.332 27.2773 82.3438 27.9336 82.3438 28.3789V28.625C82.3438 29.0234 82.3555 29.3164 82.3789 29.5039C82.4023 29.668 82.5078 29.8438 82.6953 30.0312C82.8828 30.2188 83.1758 30.3359 83.5742 30.3828C83.7383 30.4062 83.9375 30.4297 84.1719 30.4531C84.4297 30.4531 84.6172 30.4648 84.7344 30.4883C84.8516 30.4883 84.9922 30.5 85.1562 30.5234C85.3203 30.5469 85.4258 30.582 85.4727 30.6289C85.543 30.6758 85.6133 30.7344 85.6836 30.8047C85.7773 30.875 85.8359 30.9688 85.8594 31.0859C85.8828 31.1797 85.8945 31.2969 85.8945 31.4375C85.8945 31.6719 85.8242 31.8594 85.6836 32C85.543 32.1406 85.3672 32.2109 85.1562 32.2109L84.4883 32.1406C84.043 32.1172 83.4453 32.082 82.6953 32.0352C81.9688 32.0117 81.2422 32 80.5156 32C80.0469 32 79.5781 32 79.1094 32C78.6406 32.0234 78.2305 32.0469 77.8789 32.0703C77.5273 32.0938 77.1992 32.1172 76.8945 32.1406C76.6133 32.1641 76.3906 32.1758 76.2266 32.1758C76.0625 32.1992 75.9688 32.2109 75.9453 32.2109Z" fill="white"/>
<path d="M87.7578 7.53125L88.3555 7.56641C88.7539 7.58984 89.2812 7.625 89.9375 7.67188C90.5938 7.69531 91.25 7.70703 91.9062 7.70703C92.5859 7.70703 93.207 7.69531 93.7695 7.67188C94.332 7.64844 94.7656 7.625 95.0703 7.60156C95.3984 7.57812 95.5977 7.56641 95.668 7.56641C96.0664 7.56641 96.2656 7.78906 96.2656 8.23438C96.2656 8.35156 96.2539 8.45703 96.2305 8.55078C96.2305 8.62109 96.2188 8.69141 96.1953 8.76172C96.1953 8.83203 96.1719 8.89062 96.125 8.9375C96.0781 8.98438 96.0312 9.03125 95.9844 9.07812C95.9609 9.10156 95.9023 9.125 95.8086 9.14844C95.7148 9.17188 95.6328 9.19531 95.5625 9.21875C95.5156 9.24219 95.4219 9.26562 95.2812 9.28906C95.1406 9.28906 95.0234 9.30078 94.9297 9.32422C94.8359 9.32422 94.6836 9.33594 94.4727 9.35938C94.2852 9.35938 94.1211 9.37109 93.9805 9.39453C93.6055 9.41797 93.418 9.61719 93.418 9.99219V29.4336C93.418 29.9961 93.6289 30.3008 94.0508 30.3477C94.2852 30.3711 94.543 30.3945 94.8242 30.418C95.1055 30.418 95.3281 30.418 95.4922 30.418C95.6562 30.418 95.8203 30.4297 95.9844 30.4531C96.1719 30.4766 96.3125 30.5 96.4062 30.5234C96.5 30.5469 96.582 30.582 96.6523 30.6289C96.7461 30.6758 96.8047 30.7461 96.8281 30.8398C96.875 30.9336 96.8984 31.0391 96.8984 31.1562C96.8984 31.8594 96.6641 32.2109 96.1953 32.2109C96.1719 32.2109 96.0781 32.1992 95.9141 32.1758C95.75 32.1758 95.5156 32.1641 95.2109 32.1406C94.9297 32.1172 94.6133 32.0938 94.2617 32.0703C93.9102 32.0469 93.5 32.0234 93.0312 32C92.5625 32 92.0938 32 91.625 32C91.1562 32 90.6875 32 90.2188 32C89.75 32.0234 89.3281 32.0469 88.9531 32.0703C88.6016 32.0938 88.2852 32.1172 88.0039 32.1406C87.7227 32.1641 87.4883 32.1758 87.3008 32.1758C87.1367 32.1992 87.043 32.2109 87.0195 32.2109C86.6445 32.2109 86.4336 31.9414 86.3867 31.4023C86.3633 31.332 86.3516 31.2148 86.3516 31.0508C86.3516 30.7695 86.4453 30.5938 86.6328 30.5234C86.8438 30.4531 87.3242 30.3945 88.0742 30.3477C88.5898 30.3242 89.0234 30.3008 89.375 30.2773C89.8906 30.2539 90.1484 29.9141 90.1484 29.2578V10.5547C90.1484 10.4844 90.1484 10.3906 90.1484 10.2734C90.1719 10.1328 90.1836 10.0508 90.1836 10.0273C90.1836 9.72266 90.0898 9.53516 89.9023 9.46484C89.7148 9.39453 89.293 9.34766 88.6367 9.32422C88.2852 9.32422 88.0039 9.3125 87.793 9.28906C87.2539 9.24219 86.9844 8.98438 86.9844 8.51562C86.9844 7.85938 87.2422 7.53125 87.7578 7.53125Z" fill="white"/>
<path d="M102.875 12.4883V12.3477C102.875 12.0195 102.477 11.4922 101.68 10.7656C100.742 9.82812 99.6758 9.3125 98.4805 9.21875C98.0352 9.21875 97.8125 8.94922 97.8125 8.41016C97.8125 7.80078 98.082 7.49609 98.6211 7.49609H103.051C103.637 7.49609 104.117 7.71875 104.492 8.16406L110.117 14.7031L113.422 18.3945C117.828 23.1758 120.125 25.625 120.312 25.7422C120.359 25.7891 120.406 25.8125 120.453 25.8125C120.617 25.8125 120.699 25.6953 120.699 25.4609C120.699 25.1797 120.711 24.7812 120.734 24.2656C120.758 23.7266 120.77 23.2461 120.77 22.8242C120.793 22.3789 120.805 21.9688 120.805 21.5938C120.805 18.3594 120.688 14.7852 120.453 10.8711C120.43 10.168 120.266 9.72266 119.961 9.53516C119.656 9.34766 119.047 9.20703 118.133 9.11328C117.594 9.04297 117.324 8.78516 117.324 8.33984C117.324 8.12891 117.406 7.94141 117.57 7.77734C117.734 7.58984 118.004 7.49609 118.379 7.49609C118.426 7.49609 118.59 7.50781 118.871 7.53125C119.176 7.53125 119.586 7.54297 120.102 7.56641C120.641 7.58984 121.215 7.60156 121.824 7.60156C122.434 7.60156 122.984 7.58984 123.477 7.56641C123.992 7.54297 124.391 7.53125 124.672 7.53125C124.977 7.50781 125.152 7.49609 125.199 7.49609C125.715 7.49609 125.973 7.76562 125.973 8.30469C125.973 8.49219 125.949 8.64453 125.902 8.76172C125.855 8.87891 125.762 8.97266 125.621 9.04297C125.48 9.08984 125.363 9.125 125.27 9.14844C125.199 9.14844 125.047 9.16016 124.812 9.18359C124.578 9.18359 124.414 9.18359 124.32 9.18359C123.711 9.23047 123.289 9.41797 123.055 9.74609C122.844 10.0742 122.727 10.7188 122.703 11.6797C122.609 15.7578 122.562 18.875 122.562 21.0312C122.562 22.8125 122.574 24.4648 122.598 25.9883C122.621 27.5117 122.645 28.707 122.668 29.5742C122.691 30.418 122.703 30.9336 122.703 31.1211C122.703 32.2695 122.457 32.8438 121.965 32.8438C121.684 32.8438 121.098 32.3398 120.207 31.332L112.754 22.8242C107.48 16.9648 104.82 14.0352 104.773 14.0352L104.633 14.1758C104.305 19.0977 104.141 23.3633 104.141 26.9727V27.9922C104.141 28.9531 104.234 29.5742 104.422 29.8555C104.609 30.1367 105.066 30.3008 105.793 30.3477C106.684 30.3477 107.41 30.4297 107.973 30.5938C108.277 30.7344 108.43 31.0508 108.43 31.543C108.43 31.9883 108.23 32.2109 107.832 32.2109C107.809 32.2109 107.715 32.1992 107.551 32.1758C107.387 32.1758 107.164 32.1641 106.883 32.1406C106.625 32.1172 106.32 32.0938 105.969 32.0703C105.617 32.0469 105.219 32.0234 104.773 32C104.328 32 103.883 32 103.438 32C102.734 32 102.031 32.0117 101.328 32.0352C100.625 32.082 100.062 32.1172 99.6406 32.1406L99.0078 32.2109C98.5156 32.2109 98.2695 31.9766 98.2695 31.5078C98.2695 30.9922 98.4453 30.6758 98.7969 30.5586C98.9375 30.5117 99.2539 30.4766 99.7461 30.4531C100.262 30.4062 100.695 30.3125 101.047 30.1719C101.422 30.0078 101.691 29.75 101.855 29.3984C101.949 29.1641 102.172 25.8008 102.523 19.3086C102.664 16.543 102.781 14.2695 102.875 12.4883Z" fill="white"/>
<path d="M144.043 32.2109L143.34 32.1406C142.895 32.1172 142.273 32.082 141.477 32.0352C140.703 32.0117 139.93 32 139.156 32C138.664 32 138.16 32 137.645 32C137.152 32.0234 136.707 32.0469 136.309 32.0703C135.934 32.0938 135.594 32.1172 135.289 32.1406C134.984 32.1641 134.738 32.1758 134.551 32.1758C134.363 32.1992 134.258 32.2109 134.234 32.2109C133.766 32.2109 133.531 31.9062 133.531 31.2969C133.531 30.9219 133.625 30.6875 133.812 30.5938C134.023 30.5 134.492 30.4297 135.219 30.3828C135.617 30.3594 135.934 30.3359 136.168 30.3125C136.66 30.2656 136.977 30.1367 137.117 29.9258C137.281 29.7148 137.363 29.3984 137.363 28.9766V10.7305C137.363 10.4961 137.352 10.3203 137.328 10.2031C137.305 10.0859 137.211 9.95703 137.047 9.81641C136.906 9.67578 136.695 9.60547 136.414 9.60547H131.035C130.59 9.60547 130.285 9.66406 130.121 9.78125C129.957 9.875 129.805 10.0625 129.664 10.3438C128.68 12.2891 128.152 13.3086 128.082 13.4023C127.918 13.5898 127.719 13.6836 127.484 13.6836C127.25 13.6836 127.051 13.6016 126.887 13.4375C126.746 13.25 126.676 13.0273 126.676 12.7695V12.7344C126.676 12.6406 127.027 10.9883 127.73 7.77734C127.801 7.40234 128.047 7.21484 128.469 7.21484H149.457C149.855 7.21484 150.102 7.49609 150.195 8.05859C150.781 11.1055 151.074 12.6406 151.074 12.6641C151.074 12.875 151.004 13.0625 150.863 13.2266C150.723 13.3906 150.559 13.4727 150.371 13.4727C150.09 13.4727 149.82 13.2383 149.562 12.7695C149.422 12.5352 149.27 12.2773 149.105 11.9961C148.941 11.6914 148.812 11.4688 148.719 11.3281C148.648 11.1641 148.555 10.9883 148.438 10.8008C148.344 10.5898 148.262 10.4492 148.191 10.3789C148.121 10.2852 148.051 10.1914 147.98 10.0977C147.91 9.98047 147.84 9.91016 147.77 9.88672C147.723 9.83984 147.664 9.79297 147.594 9.74609C147.523 9.69922 147.441 9.67578 147.348 9.67578C147.277 9.65234 147.195 9.64062 147.102 9.64062C147.031 9.61719 146.938 9.60547 146.82 9.60547H141.512C141.277 9.60547 141.09 9.66406 140.949 9.78125C140.832 9.89844 140.762 10.0156 140.738 10.1328C140.738 10.2266 140.738 10.3789 140.738 10.5898V29.4336C140.738 29.8086 140.844 30.043 141.055 30.1367C141.289 30.2305 141.887 30.3125 142.848 30.3828C143.34 30.4297 143.727 30.4648 144.008 30.4883C144.266 30.5117 144.43 30.5938 144.5 30.7344C144.594 30.875 144.641 31.1328 144.641 31.5078C144.641 31.9766 144.441 32.2109 144.043 32.2109Z" fill="white"/>
</svg>
